<?xml version="1.0" encoding="UTF-8"?>
<svg id="Layer_1" xmlns="http://www.w3.org/2000/svg" version="1.1" viewBox="0 0 2172 724">
  <!-- Generator: Adobe Illustrator 29.8.6, SVG Export Plug-In . SVG Version: 2.1.1 Build 1)  -->
  <defs>
    <style>
      .st0 {
        fill: #c56c4a;
      }

      .st1 {
        fill: #371f14;
      }

      .st2 {
        fill: #cca56c;
      }
    </style>
  </defs>
  <path class="st1" d="M642.1,302.9c11.6,1.1,19.7-14.7,20.8-24.5,6-51.1-47.3-71.9-89.4-74.4-176.2-10.6-233,198.8-126.1,315.1,63.9,69.5,179.4,78.8,255,23.1l2.4,2.5c.4,2.2-15.2,13-18,14.8-59.9,37.8-151.7,37.3-215.6,9.8-177.7-76.6-155.2-336.4,41.5-368.9,48.4-8,154.9-5.2,167.7,56.7,4.3,20.8-3.5,44.6-22.2,55.9-10.7,6.4-31.9,10.4-39.6-2.1-11.3-18.5,19.9-29.3,23.3-7.9Z"/>
  <path class="st0" d="M751,590c-.5-2.4.2-2.5,1.6-3.9,7.5-7.2,35.2-18.4,45.8-22.2,123.5-43.6,306.8-18.4,434.7,3.3,98.6,16.8,207.2,45.8,307.4,40.7,23.7-1.2,83.1-10.1,91.9-36.1,6.7-19.7-18.1-34.9-30.9-24.9-3.2,2.5.4,7.2-2.4,12.6-7.7,14.6-32.5,2.9-19.2-15.2,25.6-34.7,90.1.7,61.4,39.4-27.3,36.8-128.1,36.5-170,34.1-75.3-4.3-149.2-21.2-223.3-33.7-121.6-20.5-253.4-39.8-376.6-25.2-41.4,4.9-82.4,14.5-120.6,30.9Z"/>
  <path class="st1" d="M1522,287v195.5c0,.5,1.4,5.2,1.8,6.2,3.3,9.1,10.2,11,19.2,11.3-1.2,2.3-7.6,2.8-10.5,3-16.6,1.3-32.6-2-35-21-10.3,8.8-19.4,15.7-32.9,19.1-59.5,15.2-112-29.5-99.2-91.2,11.9-57.2,92.6-78.3,131.5-35v-66.5c0-8-9.8-12.8-17-12.5-.3-.2.5-1.3,1-1.5,2.8-1.3,14.8-1.9,19.2-2.8,7.3-1.5,14.5-3.9,21.8-4.7ZM1445.8,357.3c-55.9,3.5-72,80.5-39.8,119.2,24.2,29.1,67.8,29.2,90.6-1.5l.5-90.6c-8.4-17.9-32.1-28.3-51.2-27.2Z"/>
  <path class="st1" d="M886,287v98c5.6-8.1,11.4-15.2,19.7-20.8,20.5-13.9,52.4-13.9,70.8,3.8,24.6,23.5,12.7,80.7,15.4,112.6,1.3,15.4,12.5,29.2,28,31.5,2.9,2.8-7.2,2-8.4,1.9-16.1-1.8-42.6-11.7-44.6-30.4-3-27.4,6.4-83.5-6.2-105.8-17.3-30.6-65.5-13.4-74.6,16,2,29.2-3.5,64.1-.1,92.7,1.1,9.4,5.2,11.4,13.4,13.6s2.9-1.1,2.4,2h-57c-.5-3.1.8-1.6,2.4-2,9.5-2.6,12.8-5,13.6-15.4,4.2-56.8-3.3-118.7,0-176-.6-5.2-3.1-9.2-8-11s-8.5-.2-8-3.5c14.1.2,27.3-5,41-7Z"/>
  <path class="st1" d="M1714,531c-27.9-1.1-54-21.6-58-50l-8,8.5c-26.3,23.7-90.3,20.3-89.1-25,.7-26.4,25.2-38.1,47.1-45,8.9-2.8,44-9.5,48.6-14.5s.2-18.4-1-23.1c-5.7-20.7-27.9-28.4-47.3-23.3-7,1.8-19.9,7.9-18.2,16.8s2.9,2.4,4.1,4c12.6,16.4-21,25-16.8.3,3.8-22.1,36.4-29.3,55.1-27.6,93.9,8.6,18.3,131.7,71.1,170.9,3.2,2.4,6.9,3.2,10,5s2.9.8,2.5,3ZM1656,410c-25.5,9.8-62.5,9.9-70.5,42-8.6,34.3,20.2,54,50.9,39.9,4.4-2.1,19.6-13.9,19.6-18.4v-63.5Z"/>
  <path class="st1" d="M1340,500c1.6,1.5-.2,1.8-1.5,2-17.6,2.6-41.5,2.5-43.5-20-1.1-1.3-9.6,8.2-11.1,9.4-28,22.1-90.7,16-86.9-28.9,3.7-43.9,67.8-42.9,97-58.2,2-23.3-8.4-44.8-33.6-47.2s-29,3.2-33.3,13.5c-3.6,8.8,3,6.4,5.1,11.7,6.3,15.4-20.5,19-19.2.4,2.8-39.1,87.2-42.8,102.7,1.1,8.1,22.9,1.2,66.7,3.2,92.8,1.1,14.2,5.6,23,21,23.5ZM1294,410c-25,9.9-62.1,10.5-70.5,42-10,37.3,27.3,56.1,56.9,36.9,2.4-1.6,13.7-12.5,13.7-14.3v-64.5Z"/>
  <path class="st1" d="M686,500c.3,2.7,0,1.6-1.5,2-7.4,1.8-22,1.9-29.2-.8-9-3.4-13-11-14.3-20.2-24.2,34.9-102.3,32.7-95.9-21.4,2.7-22.7,26.2-32.8,45.1-38.9s45.9-10.8,49.8-15.2c2.1-2.4-.4-16.9-1.3-20.7-5.7-24.2-32-32.3-53.4-23-5.7,2.5-15.9,10.2-10.3,16.7s2.3,1.1,3,2.2c13.1,17.9-26.8,23.8-15.9-4.1,11.3-28.9,61.6-28.2,83.8-13,33.9,23.2,14.5,86.7,20.3,121.7,1.6,9.8,10.2,15.1,19.8,14.7ZM641,410c-25,11-63.5,10.8-70.7,43.8-8.6,39.2,31.7,55.7,59.8,32.8s11-11.1,11-13v-63.5Z"/>
  <path class="st1" d="M1761.8,352.3c17.6-1.8,41.7,3.9,47.5,22.9.4,1.4,3.4,14-1.3,10.3s-4.8-10.3-7-13c-24.5-31.1-75.8-9.5-59.4,22.4,13.1,25.5,69.3,26.8,84.6,66.4,24.3,63.1-64.7,96.8-104.1,58.1-27.2-26.8-3.9-74.3,28.6-61.6,7.6,3,16.5,14,9.8,21.2-24.5-23.3-52.3,10.7-31.9,34.9,22.1,26.3,78,15.3,82.3-21.5,6.2-53-77.9-49-88.6-90.2-7-26.8,14.1-47.3,39.5-49.9Z"/>
  <path class="st1" d="M1052,438c4.5,41.7,41.3,68.8,82.5,56,16.5-5.1,19.7-11.2,31.2-21.8s3.7-.2,2.1,3.1c-13.3,28-62.4,32.3-88.6,24.9-91.5-25.8-61.5-166.5,39.8-147.8,48.9,9,63.4,56.3,10.5,75.6-23.9,8.7-52.3,9.5-77.5,10ZM1051,433.9c27.1,1.2,74.1-3.6,85.8-32.6,9.4-23.2-5.9-45-30.3-46.4-41.4-2.4-60.5,43.9-55.5,79Z"/>
  <path class="st1" d="M831,396.5c-.2.8-1.7,2-2.5.5-1.7-20.3-15.8-38.2-36.2-41.8-67.7-11.9-92,96.1-37.6,132.6,19.1,12.8,47.5,12.5,65.8-1.8,2.7-2.1,7.3-8.3,9.5-9.5s1.9-.2,3,1c-12.7,20.8-38.2,28-61.5,26.5-102.4-6.6-96.5-161.4,20-153,7.1.5,39.5,7.8,39.5,16.5s1.3,23.8,0,29Z"/>
  <path class="st2" d="M557.3,119.3c6.5-6.5,17-4.4,21.5,3.3,8.8,14.9-1.3,46.1-11.4,59.4-2.7.7-8.7-11.9-9.7-14.3-5.1-12.2-11-37.9-.5-48.3Z"/>
  <path class="st2" d="M585,187c2.5-15.8,18.4-43.1,37.3-38.8s6.1,4.2,6.6,7.3c3.1,18.9-29.1,30.3-43.9,31.4Z"/>
  <path class="st2" d="M548,187c-14.6-1.2-45.9-13.1-42.9-31.4,1.1-7.1,8.3-8.3,14.4-7.5,13.7,1.8,27.6,25.9,28.6,38.9Z"/>
  <path class="st1" d="M1499.5,217c13.7,1.8,21.4,14.9,17,28s-23.4,12.4-37.5,14c-.7-3.1,2.5-1.4,3-4.5s.3-32.7-.5-34.5-2.3-1.7-2.5-3c6.4.6,14.2-.8,20.5,0ZM1488.1,255.9c29.2,7.2,31.9-38.6,3.4-37-7,.4-3.5,3.4-3.4,8.5s.1,12.1,0,18.1-1.8,6.5,0,10.3Z"/>
  <path class="st1" d="M1390.7,238c0,12-9.7,21.8-21.8,21.8s-21.8-9.7-21.8-21.8,9.7-21.8,21.8-21.8,21.8,9.7,21.8,21.8ZM1364.7,219.2c-16.6,3.4-14.8,41.6,7.5,37.5s15.6-42.3-7.5-37.5Z"/>
  <path class="st1" d="M903,240v15.5l4,2c-3.7,3.6-8.8-.3-13,1.5-1.1-2.6,3-2.4,3-3.5v-36.5c0-.2-3.1-.3-3-2h18.5c4.6,0,10.1,4.6,10.5,9.5,1.1,12.3-10.3,14-20,13.5ZM903,219v17.5c0,2.9,14.1,2.6,14.1-8,0-8-7.2-10.2-14.1-9.5Z"/>
  <path class="st1" d="M1001,257l-.5,2c-3.9-2.2-7.4.3-11.5,0l2-3.4-4.2-11.4c-4,.2-13.1-1.6-15.9,1.3s-4.2,8.8-3.9,10c.5,1.7,3.9.7,3,3.6h-10s4.2-5.3,4.2-5.3l16.3-37.7,17,38.9,3.4,2.1ZM972,242h14l-6.5-16-7.5,16Z"/>
  <path class="st1" d="M1578,216l14.8,37.7,4.2,5.3c-4-1.1-8.1-1.9-12,0-.9-2.9,2.2-1.2,2.1-3.5s-3.3-10.2-5.1-11c-11.4-1.8-15.9-1.7-19,10.1l3,4.4h-10c0-2.9,2.5-2.3,4.2-5.3,5.8-10.3,9.3-26.9,15.6-36.4.6-.9-.1-1.8,2.2-1.3ZM1568,242h14l-6.5-16-7.5,16Z"/>
  <path class="st1" d="M1162,257v2c-3.9-1.9-8-1.1-12,0l3-3.5-4.9-11.1c-12-1.4-16.7-2.5-19.9,10.2l2.9,4.3c-3.6-1.2-6.4-1.2-10,0l3.1-2.6,16.9-40.4c.8-.6,2.5,2.9,2.9,3.6,5,9.8,9.4,26.9,14.9,35.1s1.5,2.2,3.2,2.3ZM1147,242l-6.5-16c-1.5,2-7.4,15.1-6.5,16h13Z"/>
  <path class="st1" d="M1241,228l-7.3-7.2c-29.7-12.6-31.6,41.6-2.4,35,4-.9,7-5.2,9.7-7.8,1.7,5.7-6,9.9-10.7,10.8-35.2,6.1-36.5-48.5,2.8-41.3,8.4,1.5,6.2,3.4,8,10.5Z"/>
  <path class="st1" d="M1659.9,218v8.9c-1.9-.8-1.4-4-3.3-5.7-3.1-2.9-12.2-3.9-14.2.7-5.7,13.5,20,11.3,19.6,26.5s-17.2,11.2-26,8.5v-9s5.5,7,5.5,7c4.3,3,12.4,3.2,14.8-2.3,5.5-12.7-20.3-11.7-20.3-25.2s15.7-11.6,24-9.5Z"/>
  <path class="st1" d="M1071.5,256l6-7-1.6,8.9-28.9,1.1c-.7-3.1,2.5-1.4,3-4.5s.3-32.7-.5-34.5-2.3-1.7-2.5-3h12c.1,1.7-3,1.8-3,2v37h15.5Z"/>
  <path class="st1" d="M1300,217c.9,2.7-1.8,1.8-2.5,2.9s-1.1,31.4-.5,34.6,3.7,1.3,3,4.5c-4.2-1.4-7.8-1.4-12,0l3.1-2.5v-36s-3.1-3.5-3.1-3.5h12Z"/>
  <path class="st1" d="M1153,203c-.7,2.1-10.7,10.1-12,9,3.5-4.5,5.3-10.8,12-9Z"/>
</svg>